<?xml version="1.0" standalone="no"?>
<!DOCTYPE svg PUBLIC "-//W3C//DTD SVG 20010904//EN"
 "http://www.w3.org/TR/2001/REC-SVG-20010904/DTD/svg10.dtd">
<svg version="1.0" xmlns="http://www.w3.org/2000/svg"
 width="1184.000000pt" height="1184.000000pt" viewBox="0 0 1184.000000 1184.000000"
 preserveAspectRatio="xMidYMid meet">
<metadata>
Created by potrace 1.11, written by Peter Selinger 2001-2013
</metadata>
<g transform="translate(0.000000,1184.000000) scale(0.100000,-0.100000)"
fill="#000000" stroke="none">
<path d="M9856 11829 c-159 -24 -273 -112 -381 -294 -33 -55 -62 -102 -65
-105 -3 -3 -14 -21 -24 -40 -11 -19 -48 -84 -82 -145 -34 -60 -100 -184 -146
-275 -46 -91 -87 -168 -91 -171 -5 -3 -9 -10 -8 -15 0 -5 -15 -41 -34 -80 -33
-68 -57 -123 -59 -134 -1 -3 -11 -25 -22 -50 -41 -88 -67 -145 -68 -155 -1 -5
-12 -32 -24 -59 -12 -27 -22 -54 -22 -60 0 -7 -4 -16 -9 -21 -4 -6 -19 -41
-32 -80 -12 -38 -27 -75 -31 -82 -5 -6 -11 -24 -14 -39 -3 -15 -8 -32 -12 -38
-3 -6 -7 -15 -9 -21 -1 -5 -22 -70 -47 -143 -25 -74 -48 -146 -51 -162 -5 -24
-18 -33 -88 -63 -83 -36 -254 -95 -294 -103 -12 -2 -34 -9 -48 -14 -14 -5 -25
-7 -25 -5 0 2 -12 0 -26 -6 -15 -5 -43 -12 -63 -15 -20 -3 -44 -7 -53 -10 -10
-3 -28 -7 -40 -9 -107 -18 -211 -35 -248 -40 -25 -3 -56 -8 -70 -10 -49 -7
-105 -15 -145 -20 -86 -10 -254 -34 -290 -41 -11 -2 -38 -7 -60 -10 -49 -6
-74 -10 -145 -25 -30 -6 -64 -12 -75 -14 -11 -2 -56 -13 -100 -25 -44 -12 -84
-23 -90 -24 -60 -12 -319 -112 -357 -139 -16 -10 -28 -16 -28 -13 0 4 -18 -5
-40 -19 -22 -14 -40 -23 -40 -20 0 3 -10 -3 -22 -15 -12 -11 -27 -20 -34 -20
-7 0 -14 -3 -16 -7 -1 -5 -33 -28 -70 -53 -38 -25 -68 -48 -68 -52 0 -5 -4 -8
-9 -8 -18 0 -201 -172 -281 -266 -121 -140 -229 -299 -301 -442 -24 -48 -48
-90 -54 -94 -5 -4 -6 -8 -1 -8 5 0 4 -6 -1 -12 -5 -7 -20 -40 -33 -73 -12 -33
-28 -74 -36 -90 -7 -17 -18 -51 -24 -75 -16 -67 -18 -75 -20 -75 -3 0 -16 -59
-24 -106 -3 -19 -8 -45 -11 -59 -8 -39 -17 -148 -17 -225 -2 -417 161 -724
473 -893 53 -28 162 -67 219 -78 14 -3 42 -9 62 -13 37 -9 266 -7 303 2 11 3
38 10 60 16 22 6 45 11 50 12 13 2 97 35 151 59 98 45 235 157 320 261 23 28
95 148 99 164 1 6 7 22 13 36 10 24 30 93 39 129 17 74 22 219 9 274 -10 42
-45 81 -96 108 -76 41 -163 25 -224 -39 -37 -40 -45 -63 -52 -152 -12 -149
-50 -238 -139 -327 -104 -104 -215 -151 -376 -158 -28 -1 -52 0 -55 3 -2 3
-21 6 -42 7 -20 1 -38 3 -39 4 -2 1 -7 4 -13 5 -5 1 -11 3 -12 5 -2 1 -10 3
-18 5 -69 15 -173 88 -229 162 -39 50 -86 167 -96 238 -4 28 -8 104 -8 170 0
111 4 159 18 225 3 14 7 35 10 48 13 71 69 228 118 332 18 37 119 214 126 220
3 3 22 28 41 55 49 70 72 97 175 200 156 156 228 208 415 300 103 51 281 115
365 133 34 6 50 10 50 12 0 2 13 5 55 13 14 3 36 8 50 11 14 3 36 8 50 10 14
2 52 9 85 15 33 6 78 13 100 16 22 3 52 8 67 11 15 3 42 7 60 9 66 8 133 17
153 21 11 2 43 7 70 10 86 10 100 12 100 14 0 1 20 4 45 6 25 2 68 9 95 14 28
5 66 12 85 15 47 8 80 14 110 20 14 3 39 8 55 11 40 7 208 50 268 68 l49 15
-6 -42 c-5 -37 -14 -80 -31 -152 -2 -11 -9 -40 -14 -65 -5 -25 -12 -56 -16
-70 -3 -14 -8 -38 -10 -55 -5 -34 -15 -100 -21 -130 -24 -124 -51 -287 -60
-355 -5 -40 -13 -103 -19 -140 -2 -14 -7 -50 -10 -80 -4 -30 -9 -64 -11 -75
-2 -11 -6 -47 -9 -80 -3 -33 -7 -71 -9 -85 -5 -25 -11 -80 -21 -195 -3 -33 -8
-72 -11 -87 -2 -15 -6 -60 -9 -100 -3 -40 -7 -91 -9 -113 -9 -85 -19 -192 -22
-235 -7 -114 -14 -209 -19 -255 -4 -47 -11 -136 -20 -280 -3 -33 -7 -85 -10
-115 -3 -30 -8 -84 -10 -120 -3 -36 -7 -90 -9 -120 -3 -30 -7 -89 -10 -130 -3
-41 -8 -93 -10 -115 -2 -22 -7 -80 -11 -130 -3 -49 -8 -103 -10 -120 -3 -16
-7 -61 -10 -100 -4 -38 -9 -88 -11 -110 -10 -90 -12 -113 -19 -184 -4 -41 -9
-84 -11 -95 -2 -11 -6 -50 -10 -85 -3 -36 -7 -68 -9 -71 -1 -3 -6 -36 -10 -73
-3 -37 -8 -78 -11 -90 -7 -32 -16 -97 -19 -132 -2 -16 -4 -30 -5 -30 -1 0 -3
-9 -4 -20 -2 -11 -6 -44 -10 -74 -4 -30 -10 -63 -12 -75 -2 -12 -8 -46 -14
-76 -5 -30 -12 -68 -15 -85 -3 -16 -8 -43 -10 -60 -3 -16 -18 -93 -35 -170
-17 -77 -32 -149 -34 -160 -14 -65 -20 -93 -52 -215 -19 -74 -37 -146 -40
-159 -3 -13 -9 -32 -15 -43 -5 -10 -7 -18 -5 -18 3 0 -2 -19 -10 -42 -9 -24
-17 -53 -20 -64 -2 -12 -31 -102 -64 -200 -34 -99 -63 -186 -65 -194 -2 -8
-20 -58 -40 -110 -21 -52 -38 -101 -38 -107 0 -7 -5 -13 -10 -13 -6 0 -8 -3
-4 -6 3 -3 -5 -32 -19 -63 -14 -31 -26 -64 -27 -73 -1 -10 -4 -18 -7 -18 -3 0
-12 -17 -19 -38 -14 -38 -24 -62 -82 -192 -63 -143 -235 -475 -307 -594 -40
-66 -72 -123 -72 -127 0 -4 -7 -9 -15 -13 -8 -3 -15 -11 -15 -17 0 -6 -17 -34
-37 -63 -87 -122 -148 -201 -155 -204 -4 -2 -8 -10 -8 -17 0 -7 -4 -15 -8 -17
-5 -1 -37 -37 -72 -78 -89 -105 -310 -321 -400 -390 -25 -19 -47 -37 -50 -40
-18 -18 -121 -90 -129 -90 -5 0 -11 -4 -13 -8 -4 -10 -141 -94 -213 -131 -27
-14 -53 -29 -56 -34 -3 -5 -8 -8 -10 -7 -2 1 -17 -4 -34 -10 -16 -6 -32 -11
-34 -10 -2 1 -7 -2 -10 -7 -7 -12 -234 -96 -316 -118 -115 -31 -130 -35 -215
-50 -47 -8 -94 -17 -105 -19 -119 -23 -515 -40 -515 -22 0 5 -6 3 -13 -3 -8
-6 -16 -9 -18 -7 -2 3 -40 7 -84 11 -44 3 -91 8 -105 10 -14 2 -54 9 -90 14
-36 6 -76 13 -90 16 -14 3 -38 8 -55 11 -56 9 -280 76 -360 107 -44 17 -85 32
-90 33 -32 5 -305 141 -383 191 -29 18 -54 33 -56 33 -8 0 -161 104 -164 112
-2 4 -8 8 -14 8 -6 0 -43 26 -82 57 -445 356 -760 770 -942 1238 -21 55 -39
105 -40 112 -1 7 -11 41 -23 75 -28 87 -45 151 -43 161 2 5 -2 27 -8 49 -6 22
-14 59 -16 82 -3 22 -7 48 -9 56 -2 8 -7 42 -11 75 -3 33 -8 62 -10 64 -2 2 1
10 7 18 7 7 7 13 2 13 -6 0 -9 67 -7 177 3 166 6 209 18 287 3 17 8 49 11 71
11 70 64 274 80 304 8 17 15 39 15 51 0 11 5 20 10 20 6 0 10 6 10 13 0 17 74
162 120 237 36 58 100 143 113 148 4 2 7 9 7 14 0 16 230 238 246 238 8 0 14
4 14 9 0 7 65 56 95 71 6 3 30 18 54 34 86 55 231 121 361 161 86 27 102 31
155 40 17 3 37 8 45 10 69 19 188 30 335 30 134 -1 218 -8 325 -29 19 -4 42
-8 50 -9 8 -2 21 -6 28 -10 6 -5 12 -6 12 -3 0 3 16 -2 35 -10 19 -8 35 -12
35 -10 0 3 32 -8 70 -24 39 -16 70 -27 70 -25 0 2 39 -17 88 -43 48 -25 97
-50 109 -56 13 -6 23 -14 23 -18 0 -5 6 -8 13 -8 8 0 22 -9 32 -20 10 -11 24
-20 31 -20 7 0 17 -6 21 -13 4 -7 22 -21 38 -32 54 -34 291 -280 303 -315 2
-5 -48 -60 -110 -122 -63 -62 -120 -122 -128 -134 -8 -12 -41 -55 -72 -97 -32
-42 -58 -81 -58 -87 0 -6 -7 -13 -15 -16 -8 -4 -15 -10 -15 -15 0 -4 -13 -30
-29 -58 -16 -27 -27 -52 -24 -55 4 -3 2 -6 -4 -6 -6 0 -13 -8 -16 -17 -3 -10
-17 -45 -32 -78 -21 -50 -38 -101 -51 -147 -1 -5 -3 -10 -4 -13 -10 -20 -24
-155 -22 -215 4 -143 78 -303 177 -385 21 -16 45 -37 55 -46 30 -28 250 -128
250 -114 0 3 9 1 20 -5 11 -6 35 -13 53 -15 17 -3 55 -9 83 -13 125 -21 271 2
369 58 53 31 130 101 155 141 24 40 80 149 75 149 -2 0 1 15 7 33 28 90 36
167 32 307 -2 80 -6 159 -9 175 -2 17 -7 48 -11 70 -4 22 -7 48 -7 58 -1 9 -4
17 -7 17 -3 0 -6 10 -6 23 -1 35 -77 311 -104 372 -4 11 -15 39 -24 62 l-16
43 48 24 c65 33 146 56 217 62 87 8 141 38 177 99 58 100 22 228 -82 282 -38
20 -55 23 -110 19 -82 -6 -118 -12 -172 -27 -24 -7 -50 -14 -58 -15 -22 -4
-126 -49 -142 -61 -7 -6 -25 -14 -39 -18 -23 -6 -32 1 -79 62 -74 94 -327 343
-349 343 -5 0 -14 7 -21 15 -11 13 -83 62 -195 132 -91 57 -368 174 -473 198
-9 3 -33 8 -52 13 -19 5 -38 9 -42 10 -5 1 -9 2 -10 3 -5 1 -43 7 -78 13 -19
2 -46 7 -58 10 -102 23 -444 24 -572 2 -14 -3 -42 -7 -62 -10 -21 -3 -57 -10
-80 -15 -24 -6 -54 -12 -68 -15 -54 -11 -69 -15 -116 -31 -27 -9 -57 -17 -66
-18 -10 -1 -18 -5 -18 -10 0 -4 -4 -6 -9 -2 -5 3 -12 1 -15 -4 -5 -7 -55 -22
-72 -20 -4 0 -10 -3 -13 -8 -3 -4 -33 -19 -65 -32 -71 -29 -240 -120 -244
-133 -2 -4 -9 -8 -15 -8 -7 0 -44 -24 -82 -52 -39 -29 -81 -60 -95 -70 -14 -9
-41 -31 -60 -48 -19 -18 -51 -47 -70 -65 -40 -36 -119 -122 -170 -184 -19 -24
-40 -48 -46 -54 -16 -18 -106 -155 -139 -212 -58 -100 -160 -325 -148 -325 4
0 2 -5 -5 -12 -7 -7 -12 -18 -12 -24 0 -7 -5 -25 -11 -41 -7 -15 -13 -35 -15
-43 -3 -20 -9 -46 -23 -97 -18 -66 -38 -167 -46 -233 -3 -19 -8 -57 -12 -85
-10 -67 -10 -513 0 -595 12 -107 29 -208 48 -291 6 -26 12 -53 13 -60 2 -8 6
-21 9 -29 6 -16 39 -131 39 -140 2 -14 104 -283 117 -307 6 -10 32 -63 59
-118 70 -143 137 -259 199 -346 18 -26 33 -51 33 -57 0 -6 3 -12 8 -14 4 -2
32 -37 62 -78 99 -135 210 -263 349 -400 75 -74 150 -146 166 -160 107 -90
185 -150 194 -150 6 0 11 -4 11 -8 0 -10 268 -188 277 -184 3 2 9 0 12 -5 12
-19 344 -193 366 -193 2 0 28 -11 57 -24 52 -24 188 -75 218 -81 8 -2 16 -4
18 -5 1 -2 5 -3 10 -5 4 -1 14 -4 22 -7 65 -22 161 -48 280 -73 44 -9 60 -12
195 -35 28 -4 53 -6 58 -3 4 2 7 -1 7 -7 0 -7 6 -8 17 -1 9 5 26 6 37 2 66
-23 578 -21 703 3 11 3 44 8 74 11 89 12 92 13 216 39 146 31 380 110 548 186
22 10 44 18 49 18 5 0 12 4 15 9 3 4 37 24 76 43 38 19 76 41 83 47 7 7 24 16
38 19 13 3 24 10 24 15 0 5 4 9 9 9 8 0 101 60 180 118 288 206 590 519 811
842 25 36 47 67 50 70 10 9 93 141 106 170 4 8 11 17 14 20 4 3 24 36 46 74
131 230 304 574 304 606 0 5 5 10 10 10 6 0 9 3 8 8 -1 7 4 20 37 97 35 81
107 262 131 330 14 39 29 79 34 90 13 27 61 167 116 340 55 171 51 158 53 167
1 4 9 29 17 55 18 59 102 379 108 413 2 14 5 26 7 28 1 1 2 5 3 10 4 13 26
116 30 137 2 11 7 31 10 45 3 14 8 36 10 50 3 14 10 50 16 80 18 87 49 256 55
300 2 14 15 100 29 192 24 156 32 206 41 283 2 17 6 50 10 75 4 25 7 60 7 78
0 17 3 32 7 32 3 0 6 19 7 43 0 42 11 149 18 197 3 14 7 61 11 105 4 44 8 98
10 120 8 82 16 182 21 235 2 30 6 80 9 110 2 30 7 80 10 110 2 30 7 91 11 135
3 44 8 105 10 135 5 53 7 87 18 275 4 50 9 119 12 155 3 36 7 85 9 110 14 196
18 247 20 260 2 8 6 58 10 110 4 52 9 111 10 130 2 19 4 35 5 35 1 0 3 18 5
40 11 131 16 184 20 215 3 19 7 58 10 85 3 28 7 59 9 70 7 35 20 159 20 193 1
17 3 32 6 32 3 0 7 17 9 38 5 58 13 120 27 194 1 9 6 38 10 65 3 26 8 57 10
68 3 11 7 36 9 55 3 19 8 46 12 60 3 14 7 34 8 45 5 37 29 161 39 205 3 14 8
36 10 50 2 14 18 88 35 165 33 146 36 160 48 210 4 17 7 32 8 35 0 3 9 35 19
72 16 57 23 69 52 84 19 10 34 22 34 26 0 5 5 8 10 8 6 0 28 12 49 28 21 15
49 34 61 42 30 21 113 83 131 98 7 7 24 20 35 30 85 67 133 112 239 217 115
116 214 224 244 269 8 12 26 35 40 52 14 17 33 41 41 54 8 12 24 35 36 49 28
36 135 206 165 261 13 25 26 47 29 50 6 5 123 240 126 250 0 3 6 17 12 33 7
15 17 39 24 55 6 15 12 29 13 32 1 3 6 16 12 30 5 14 22 61 38 105 15 44 30
87 33 95 6 18 9 29 16 58 3 12 9 32 12 45 10 41 11 161 1 207 -13 64 -61 158
-104 207 -97 107 -266 164 -417 142z m125 -397 c20 -11 34 -27 36 -42 3 -23
-72 -268 -86 -280 -3 -3 -7 -12 -9 -20 -8 -37 -120 -267 -183 -376 -81 -142
-211 -325 -309 -438 -65 -75 -239 -250 -243 -246 -4 4 70 201 105 280 6 14 12
27 13 30 0 3 7 16 15 30 7 14 13 26 12 27 -1 2 5 17 12 35 20 49 25 62 35 78
4 8 52 103 104 210 108 219 158 313 170 318 4 2 7 12 7 23 0 10 5 19 10 19 6
0 10 4 10 10 0 5 16 34 35 64 19 30 35 57 35 60 0 5 125 202 139 220 15 18 58
17 92 -2z m-4963 -7649 c6 -21 20 -72 32 -113 11 -41 23 -86 26 -99 27 -129
32 -156 28 -162 -2 -4 -1 -10 3 -12 5 -3 8 -30 8 -61 0 -31 2 -56 5 -56 8 0 4
-85 -4 -99 -4 -6 -2 -11 4 -11 6 0 8 -5 5 -11 -4 -5 -9 -24 -12 -41 -3 -17 -9
-43 -15 -57 -5 -14 -8 -27 -6 -28 10 -5 -50 -54 -79 -64 -33 -11 -141 -5 -190
10 -2 1 -5 1 -8 1 -3 0 -24 8 -47 17 -149 59 -184 146 -127 315 37 110 133
272 216 366 21 23 58 65 82 92 24 28 49 50 56 50 7 0 17 -17 23 -37z"/>
</g>
</svg>
