<svg viewBox="0 0 112 148"><path d="M40 148c-0.7 0-1.5 0-2.3-0.1 -5.7-0.3-11.5-2-16.9-5.1 -5.2-2.9-9.8-7-13.3-11.8 -6.6-8.9-9-19.2-6.7-29.1 2.3-10.1 10.2-17.5 20.5-19.3 9.8-1.7 19.2 2.1 24.9 10 2.7-1.5 4.8-1.7 5.8-1.7 0 0 0 0 0 0 1.3 0 2.4 1.1 2.4 2.5 0 1.4-1.1 2.5-2.4 2.5 0 0 0 0 0 0 -1 0-2.2 0.4-3.5 1.1 1.8 4.5 3.8 12.1 0.9 16.3 -1.1 1.7-3.5 3.4-8 2.3 -4.6-1.1-7-4.2-6.5-8.4 0.4-3.3 2.7-7.4 6.3-10.8 0.3-0.3 0.7-0.6 1-0.9 -4.5-6.3-12.1-9.3-20-7.9 -8.4 1.5-14.7 7.4-16.6 15.5 -1.9 8.5 0.1 17.4 5.8 25 6.4 8.7 16.6 14.3 26.6 14.9 10.4 0.5 18.8-2.9 25.9-10.5 5.7-6.1 10.2-14.9 14-26.7 4.1-12.9 5.1-26.3 6.1-39.2 0.8-10.7 1.6-21.7 4.1-32.5 0-0.2 0.1-0.4 0.1-0.6 -3.7 1.2-7.5 1.7-11.2 2.2 -5.7 0.8-11 1.5-15.5 4.7 -6.8 5-9.6 13.3-8.3 18.4 0.9 3.9 4.3 5 6.9 4.7 2.8-0.3 5.7-2.4 5.7-6.2 0-1.4 1.1-2.5 2.4-2.5 0 0 0 0 0 0 1.3 0 2.4 1.1 2.4 2.5 0 6.8-5.2 10.5-10 11.1 -4.8 0.6-10.6-1.8-12.2-8.4 -2.1-8.9 3.7-18.7 10.2-23.5 5.4-4 11.7-4.8 17.7-5.6 4.8-0.6 9.3-1.3 13.4-3.3 2.6-8.7 6.4-16.9 11.3-24.7 1.6-2.6 4.8-3.5 7.6-2.3 2.6 1.2 3.8 4 3 6.9 -2.8 9.7-9.2 18.2-17.8 23.4 -0.4 1.4-0.8 2.9-1.1 4.4 -2.4 10.5-3.3 21.3-4 31.8 -1 13.2-2 26.9-6.3 40.4 -4 12.5-8.9 21.8-15.1 28.5C60 143.9 50.8 148 40 148zM44.5 100.1c-2.5 2.4-4.5 5.4-4.8 7.7 -0.1 0.8-0.3 2.3 2.8 3 1.5 0.4 2.5 0.2 2.9-0.4C46.7 108.7 45.8 103.8 44.5 100.1zM106.2 4.9c-0.3 0-0.7 0.1-0.9 0.6 -3.5 5.5-6.4 11.3-8.6 17.3 4.9-4.4 8.6-10.3 10.5-16.7 0.2-0.5 0-0.8-0.4-1C106.7 5 106.5 4.9 106.2 4.9z"/></svg>